<svg width="100" height="100" viewBox="0 0 100 100" fill="none" xmlns="http://www.w3.org/2000/svg">
<path d="M0 50C0 22.3858 22.3858 0 50 0V0C77.6142 0 100 22.3858 100 50V50C100 77.6142 77.6142 100 50 100V100C22.3858 100 0 77.6142 0 50V50Z" fill="white"/>
<path d="M23.126 63.324C22.418 63.324 21.794 63.072 21.254 62.568C20.714 62.064 20.444 61.416 20.444 60.624C20.444 59.736 20.744 59.016 21.344 58.464C21.944 57.912 22.676 57.636 23.54 57.636C24.404 57.636 25.07 57.912 25.538 58.464C26.006 59.016 26.24 59.64 26.24 60.336C26.24 61.272 25.946 62.004 25.358 62.532C24.77 63.06 24.026 63.324 23.126 63.324ZM28.2372 63V61.056L30.2172 60.696V46.602L27.9492 45.918V43.686L33.9072 42.822L34.3212 42.948L34.9692 44.136L34.9512 45.846C35.4672 45.318 36.1392 44.826 36.9672 44.37C37.7952 43.914 38.6652 43.542 39.5772 43.254C40.4892 42.966 41.3172 42.822 42.0612 42.822C43.3692 42.822 44.4132 43.056 45.1932 43.524C45.9852 43.98 46.5792 44.682 46.9752 45.63C47.4672 45.138 48.0792 44.682 48.8112 44.262C49.5432 43.83 50.3412 43.482 51.2052 43.218C52.0692 42.954 52.9392 42.822 53.8152 42.822C54.8832 42.822 55.7832 42.978 56.5152 43.29C57.2592 43.59 57.8592 44.058 58.3152 44.694C58.7712 45.318 59.1012 46.128 59.3052 47.124C59.5092 48.108 59.6112 49.29 59.6112 50.67V60.696L61.8792 61.056V63H52.6272V61.056L54.4452 60.696V50.796C54.4452 49.644 54.3612 48.708 54.1932 47.988C54.0252 47.256 53.7192 46.722 53.2752 46.386C52.8312 46.038 52.1952 45.864 51.3672 45.864C50.8872 45.864 50.4012 45.942 49.9092 46.098C49.4292 46.242 48.9732 46.434 48.5412 46.674C48.1212 46.902 47.7612 47.136 47.4612 47.376C47.5212 47.676 47.5692 48 47.6052 48.348C47.6412 48.696 47.6652 49.062 47.6772 49.446C47.7012 49.83 47.7132 50.226 47.7132 50.634V60.696L49.8912 61.056V63H40.5852V61.056L42.5292 60.696V50.706C42.5292 49.566 42.4512 48.642 42.2952 47.934C42.1392 47.214 41.8512 46.692 41.4312 46.368C41.0232 46.032 40.4112 45.864 39.5952 45.864C38.7912 45.864 38.0172 46.044 37.2732 46.404C36.5292 46.764 35.9052 47.148 35.4012 47.556V60.696L37.4892 61.056V63H28.2372ZM72.0396 63.396C69.8796 63.396 68.1096 62.964 66.7296 62.1C65.3616 61.236 64.3476 60.036 63.6876 58.5C63.0396 56.952 62.7156 55.17 62.7156 53.154C62.7156 51.534 62.9496 50.082 63.4176 48.798C63.8856 47.502 64.5396 46.404 65.3796 45.504C66.2316 44.604 67.2396 43.92 68.4036 43.452C69.5796 42.972 70.8756 42.732 72.2916 42.732C74.7036 42.732 76.5516 43.356 77.8356 44.604C79.1196 45.852 79.7856 47.616 79.8336 49.896C79.8336 50.688 79.8096 51.372 79.7616 51.948C79.7256 52.512 79.6596 52.998 79.5636 53.406H68.0616C68.1096 54.498 68.2596 55.476 68.5116 56.34C68.7636 57.192 69.1116 57.918 69.5556 58.518C70.0116 59.118 70.5696 59.574 71.2296 59.886C71.8896 60.186 72.6576 60.336 73.5336 60.336C74.4816 60.336 75.4416 60.174 76.4136 59.85C77.3856 59.526 78.1356 59.172 78.6636 58.788L79.4916 60.606C79.1196 61.014 78.5496 61.434 77.7816 61.866C77.0136 62.298 76.1256 62.664 75.1176 62.964C74.1216 63.252 73.0956 63.396 72.0396 63.396ZM68.0436 51.39L74.7216 51.354C74.7336 51.09 74.7456 50.82 74.7576 50.544C74.7816 50.268 74.7936 49.998 74.7936 49.734C74.7936 48.258 74.5716 47.082 74.1276 46.206C73.6836 45.318 72.8916 44.874 71.7516 44.874C71.2356 44.874 70.7556 44.982 70.3116 45.198C69.8796 45.402 69.4956 45.75 69.1596 46.242C68.8356 46.722 68.5776 47.388 68.3856 48.24C68.1936 49.08 68.0796 50.13 68.0436 51.39Z" fill="#2D3282"/>
</svg>
